<svg xmlns="http://www.w3.org/2000/svg" viewBox="0 0 116.57 92.06"><title>カート</title><g id="レイヤー_2" data-name="レイヤー 2"><g id="レイヤー_1-2" data-name="レイヤー 1"><path d="M114.7,16.12a2.79,2.79,0,0,0-3.54,1.72L98.27,55.18h-66L16.65,2A2.78,2.78,0,0,0,14,0H2.78a2.78,2.78,0,0,0,0,5.56h9.13L27.56,58.74l3.92,14.11a2.76,2.76,0,0,0,2.67,2H96.62a2.78,2.78,0,0,0,0-5.56H36.27l-2.38-8.59h66.36a2.78,2.78,0,0,0,2.63-1.87l13.54-39.22A2.78,2.78,0,0,0,114.7,16.12Z"/><circle cx="34.92" cy="86.72" r="5.33"/><circle cx="96.97" cy="86.72" r="5.33"/></g></g></svg>